<svg width="22" height="21" viewBox="0 0 22 21" fill="none" xmlns="http://www.w3.org/2000/svg">
<g id="fav-icon">
<g id="Vector">
<mask id="path-1-inside-1" fill="white">
<path d="M2.66602 11.7431C0.810469 9.73137 0 7.53245 0 5.56747C0 2.22231 2.02617 0 5.11875 0C7.99805 0 8.97914 1.47374 10.6641 3.57909C12.349 1.47374 13.3301 0 16.2094 0C19.302 0 21.3281 2.22231 21.3281 5.56747C21.3281 7.53245 20.5177 9.73137 18.6621 11.7198L10.6641 20.4686L2.66602 11.7431Z"/>
</mask>
<path d="M2.66602 11.7431C0.810469 9.73137 0 7.53245 0 5.56747C0 2.22231 2.02617 0 5.11875 0C7.99805 0 8.97914 1.47374 10.6641 3.57909C12.349 1.47374 13.3301 0 16.2094 0C19.302 0 21.3281 2.22231 21.3281 5.56747C21.3281 7.53245 20.5177 9.73137 18.6621 11.7198L10.6641 20.4686L2.66602 11.7431Z" stroke="#ADADAD" stroke-width="4" mask="url(#path-1-inside-1)"/>
</g>
</g>
</svg>
